# xmcd
#
# Track frame offsets:
# 150
# 14967
# 37922
# 48502
# 65065
# 83830
# 105487
# 123302
# 142442
# 157650
# 171887
# 185760
# 206427
#
# Disc length: 2891 seconds
#
#
# Revision: 0
# Processed by: cddbd v1.5.2PL0 Copyright (c) Steve Scherf et al.
# Submitted via: FreeRIP 2.945 
#
DISCID=b90b490d
DTITLE=carlos farias - lavadeiras jequitinhonha
DYEAR=2002
DGENRE=National Folk
TTITLE0=01-navio de guerra cessando areia
TTITLE1=02-beira mar da vigia
TTITLE2=03-cai bananeira
TTITLE3=04-córrego novo
TTITLE4=05-senhora santana
TTITLE5=06-mestre diôla
TTITLE6=07-penera gaviao
TTITLE7=08-tributo ao jequitinhonha
TTITLE8=09-da sala pra varanda
TTITLE9=10-rala o coco bem te vi
TTITLE10=11-ao clarão da lua
TTITLE11=12-rosa no batuque
TTITLE12=13-saudade de portugal
EXTD=
EXTT0=
EXTT1=
EXTT2=
EXTT3=
EXTT4=
EXTT5=
EXTT6=
EXTT7=
EXTT8=
EXTT9=
EXTT10=
EXTT11=
EXTT12=
PLAYORDER=
